<?xml version="1.0" encoding="UTF-8"?><svg xmlns="http://www.w3.org/2000/svg" xmlns:xlink="http://www.w3.org/1999/xlink" fill-opacity="1" color-rendering="auto" color-interpolation="auto" text-rendering="auto" stroke="black" stroke-linecap="square" width="1096" stroke-miterlimit="10" shape-rendering="auto" stroke-opacity="1" fill="black" stroke-dasharray="none" font-weight="normal" stroke-width="1" height="477" font-family="'Dialog'" font-style="normal" stroke-linejoin="miter" font-size="12px" stroke-dashoffset="0" image-rendering="auto">
  <!--Generated by ySVG 2.5-->
  <defs id="genericDefs"/>
  <g>
    <defs id="defs1">
      <clipPath clipPathUnits="userSpaceOnUse" id="clipPath1">
        <path d="M0 0 L1096 0 L1096 477 L0 477 L0 0 Z"/>
      </clipPath>
      <clipPath clipPathUnits="userSpaceOnUse" id="clipPath2">
        <path d="M109 -67 L1205 -67 L1205 410 L109 410 L109 -67 Z"/>
      </clipPath>
    </defs>
    <g fill="white" text-rendering="geometricPrecision" shape-rendering="geometricPrecision" transform="translate(-109,67)" stroke="white">
      <rect x="109" width="1096" height="477" y="-67" clip-path="url(#clipPath2)" stroke="none"/>
    </g>
    <g fill="rgb(255,204,0)" text-rendering="geometricPrecision" shape-rendering="geometricPrecision" transform="matrix(1,0,0,1,-109,67)" stroke="rgb(255,204,0)">
      <ellipse rx="16.5918" ry="15" clip-path="url(#clipPath2)" cx="198" cy="202.6" stroke="none"/>
    </g>
    <g text-rendering="geometricPrecision" stroke-miterlimit="1.45" shape-rendering="geometricPrecision" transform="matrix(1,0,0,1,-109,67)" stroke-linecap="butt">
      <ellipse rx="16.5918" fill="none" ry="15" clip-path="url(#clipPath2)" cx="198" cy="202.6"/>
      <text x="188.4082" xml:space="preserve" y="206.7543" clip-path="url(#clipPath2)" font-family="sans-serif" stroke="none">Init</text>
    </g>
    <g fill="rgb(255,204,0)" text-rendering="geometricPrecision" shape-rendering="geometricPrecision" transform="matrix(1,0,0,1,-109,67)" stroke="rgb(255,204,0)">
      <ellipse rx="50.5352" ry="15" clip-path="url(#clipPath2)" cx="175" cy="125" stroke="none"/>
    </g>
    <g text-rendering="geometricPrecision" stroke-miterlimit="1.45" shape-rendering="geometricPrecision" transform="matrix(1,0,0,1,-109,67)" stroke-linecap="butt">
      <ellipse rx="50.5352" fill="none" ry="15" clip-path="url(#clipPath2)" cx="175" cy="125"/>
      <text x="131.4648" xml:space="preserve" y="129.1543" clip-path="url(#clipPath2)" font-family="sans-serif" stroke="none">Ready to clear</text>
    </g>
    <g fill="rgb(255,204,0)" text-rendering="geometricPrecision" shape-rendering="geometricPrecision" transform="matrix(1,0,0,1,-109,67)" stroke="rgb(255,204,0)">
      <ellipse rx="38.9131" ry="15" clip-path="url(#clipPath2)" cx="350" cy="125" stroke="none"/>
    </g>
    <g text-rendering="geometricPrecision" stroke-miterlimit="1.45" shape-rendering="geometricPrecision" transform="matrix(1,0,0,1,-109,67)" stroke-linecap="butt">
      <ellipse rx="38.9131" fill="none" ry="15" clip-path="url(#clipPath2)" cx="350" cy="125"/>
      <text x="318.0869" xml:space="preserve" y="129.1543" clip-path="url(#clipPath2)" font-family="sans-serif" stroke="none">Unpressed</text>
    </g>
    <g fill="rgb(255,204,0)" text-rendering="geometricPrecision" shape-rendering="geometricPrecision" transform="matrix(1,0,0,1,-109,67)" stroke="rgb(255,204,0)">
      <ellipse rx="56.957" ry="15" clip-path="url(#clipPath2)" cx="605.8" cy="125" stroke="none"/>
    </g>
    <g text-rendering="geometricPrecision" stroke-miterlimit="1.45" shape-rendering="geometricPrecision" transform="matrix(1,0,0,1,-109,67)" stroke-linecap="butt">
      <ellipse rx="56.957" fill="none" ry="15" clip-path="url(#clipPath2)" cx="605.8" cy="125"/>
      <text x="555.843" xml:space="preserve" y="129.1543" clip-path="url(#clipPath2)" font-family="sans-serif" stroke="none">Pressed recently</text>
    </g>
    <g fill="rgb(255,204,0)" text-rendering="geometricPrecision" shape-rendering="geometricPrecision" transform="matrix(1,0,0,1,-109,67)" stroke="rgb(255,204,0)">
      <ellipse rx="55.7061" ry="15" clip-path="url(#clipPath2)" cx="888.2" cy="125" stroke="none"/>
    </g>
    <g text-rendering="geometricPrecision" stroke-miterlimit="1.45" shape-rendering="geometricPrecision" transform="matrix(1,0,0,1,-109,67)" stroke-linecap="butt">
      <ellipse rx="55.7061" fill="none" ry="15" clip-path="url(#clipPath2)" cx="888.2" cy="125"/>
      <text x="839.494" xml:space="preserve" y="129.1543" clip-path="url(#clipPath2)" font-family="sans-serif" stroke="none">Press registered</text>
    </g>
    <g fill="rgb(255,204,0)" text-rendering="geometricPrecision" shape-rendering="geometricPrecision" transform="matrix(1,0,0,1,-109,67)" stroke="rgb(255,204,0)">
      <ellipse rx="90.6924" ry="15" clip-path="url(#clipPath2)" cx="888.2" cy="260" stroke="none"/>
    </g>
    <g text-rendering="geometricPrecision" stroke-miterlimit="1.45" shape-rendering="geometricPrecision" transform="matrix(1,0,0,1,-109,67)" stroke-linecap="butt">
      <ellipse rx="90.6924" fill="none" ry="15" clip-path="url(#clipPath2)" cx="888.2" cy="260"/>
      <text x="804.5076" xml:space="preserve" y="264.1543" clip-path="url(#clipPath2)" font-family="sans-serif" stroke="none">Press registered (extended)</text>
    </g>
    <g fill="rgb(255,204,0)" text-rendering="geometricPrecision" shape-rendering="geometricPrecision" transform="matrix(1,0,0,1,-109,67)" stroke="rgb(255,204,0)">
      <ellipse rx="55.9814" ry="15" clip-path="url(#clipPath2)" cx="1088.2" cy="125" stroke="none"/>
    </g>
    <g text-rendering="geometricPrecision" stroke-miterlimit="1.45" shape-rendering="geometricPrecision" transform="matrix(1,0,0,1,-109,67)" stroke-linecap="butt">
      <ellipse rx="55.9814" fill="none" ry="15" clip-path="url(#clipPath2)" cx="1088.2" cy="125"/>
      <text x="1039.2185" xml:space="preserve" y="129.1543" clip-path="url(#clipPath2)" font-family="sans-serif" stroke="none">Press consumed</text>
    </g>
    <g fill="rgb(255,204,0)" text-rendering="geometricPrecision" shape-rendering="geometricPrecision" transform="matrix(1,0,0,1,-109,67)" stroke="rgb(255,204,0)">
      <rect x="256" width="61.2" height="30" y="238.52" clip-path="url(#clipPath2)" stroke="none"/>
    </g>
    <g text-rendering="geometricPrecision" stroke-miterlimit="1.45" shape-rendering="geometricPrecision" transform="matrix(1,0,0,1,-109,67)" stroke-linecap="butt">
      <rect fill="none" x="256" width="61.2" height="30" y="238.52" clip-path="url(#clipPath2)"/>
      <text x="271.9428" xml:space="preserve" y="257.6743" clip-path="url(#clipPath2)" font-family="sans-serif" stroke="none">Start</text>
      <rect x="370" y="292" clip-path="url(#clipPath2)" fill="none" width="332" stroke-dasharray="6,2" height="103"/>
      <text x="379.4609" xml:space="preserve" y="312.7324" clip-path="url(#clipPath2)" font-family="sans-serif" stroke="none">Legend:</text>
      <text x="379.4609" xml:space="preserve" y="326.7012" clip-path="url(#clipPath2)" font-family="sans-serif" stroke="none">t0 - time since device's insertion</text>
      <text x="379.4609" xml:space="preserve" y="340.6699" clip-path="url(#clipPath2)" font-family="sans-serif" stroke="none">t - time since button push registration</text>
      <text x="379.4609" xml:space="preserve" y="354.6387" clip-path="url(#clipPath2)" font-family="sans-serif" stroke="none">BTN_PRESS - is button pressed; read from hardware</text>
      <text x="379.4609" xml:space="preserve" y="368.6074" clip-path="url(#clipPath2)" font-family="sans-serif" stroke="none">consume - mark registered touch "used"</text>
      <text x="379.4609" xml:space="preserve" y="382.5762" clip-path="url(#clipPath2)" font-family="sans-serif" stroke="none">cleared - touch button is "cleared"</text>
      <rect x="352" y="-51.2" clip-path="url(#clipPath2)" fill="none" width="229" stroke-dasharray="6,2" height="50"/>
      <text x="359.0127" xml:space="preserve" y="-36.0145" clip-path="url(#clipPath2)" font-family="sans-serif" stroke="none">Touch-button state machine flow</text>
      <text x="359.0127" xml:space="preserve" y="-22.0457" clip-path="url(#clipPath2)" font-family="sans-serif" stroke="none">Nitrokey Fido U2F</text>
      <text x="359.0127" xml:space="preserve" y="-8.077" clip-path="url(#clipPath2)" font-family="sans-serif" stroke="none">Git commit: 789da5e60e6f15fd87fc</text>
      <path fill="none" d="M198 217.6 L198 242.6 L197.375 246.975 L195.5 250.1 L192.375 251.975 L188 252.6 L158 252.6 L153.625 251.975 L150.5 250.1 L148.625 246.975 L148 242.6 L148 212.6 L148.625 208.225 L150.5 205.1 L153.625 203.225 L158 202.6 L173.4082 202.6" clip-path="url(#clipPath2)"/>
      <path d="M181.4082 202.6 L169.4082 197.6 L172.4082 202.6 L169.4082 207.6 Z" clip-path="url(#clipPath2)" stroke="none"/>
      <text x="151.4449" xml:space="preserve" y="264.0743" clip-path="url(#clipPath2)" font-family="sans-serif" stroke="none">t0 &lt; 3s</text>
      <path fill="none" d="M214.5918 202.6 L214.5918 175.52 L213.9668 171.145 L212.0918 168.02 L208.9668 166.145 L204.5918 165.52 L134.4648 165.52 L130.0898 164.895 L126.9648 163.02 L125.0898 159.895 L124.4648 155.52 L124.4648 133" clip-path="url(#clipPath2)"/>
      <path d="M124.4648 125 L119.4648 137 L124.4648 134 L129.4648 137 Z" clip-path="url(#clipPath2)" stroke="none"/>
      <text x="218.6449" xml:space="preserve" y="182.4743" clip-path="url(#clipPath2)" font-family="sans-serif" stroke="none">t0 &gt; 3s</text>
      <path fill="none" d="M175 110 L175 85 L175.625 80.625 L177.5 77.5 L180.625 75.625 L185 75 L265 75 L269.375 75.625 L272.5 77.5 L274.375 80.625 L275 85 L275 105 L274.375 109.375 L272.5 112.5 L269.375 114.375 L265 115 L220.6914 115" clip-path="url(#clipPath2)"/>
      <path d="M212.6914 115 L224.6914 120 L221.6914 115 L224.6914 110 Z" clip-path="url(#clipPath2)" stroke="none"/>
      <text x="176.2939" xml:space="preserve" y="68.7543" clip-path="url(#clipPath2)" font-family="sans-serif" stroke="none">!cleared</text>
      <path fill="none" d="M225.5352 125 L303.0869 125" clip-path="url(#clipPath2)"/>
      <path d="M311.0869 125 L299.0869 120 L302.0869 125 L299.0869 130 Z" clip-path="url(#clipPath2)" stroke="none"/>
      <text x="261.4992" xml:space="preserve" y="141.6743" clip-path="url(#clipPath2)" font-family="sans-serif" stroke="none">cleared</text>
      <path fill="none" d="M375 113.4936 L375 85 L375.625 80.625 L377.5 77.5 L380.625 75.625 L385 75 L415 75 L419.375 75.625 L422.5 77.5 L424.375 80.625 L425 85 L425 105 L424.375 109.375 L422.5 112.5 L419.375 114.375 L415 115 L387.0068 115" clip-path="url(#clipPath2)"/>
      <path d="M379.0068 115 L391.0068 120 L388.0068 115 L391.0068 110 Z" clip-path="url(#clipPath2)" stroke="none"/>
      <text x="374.1299" xml:space="preserve" y="72.0743" clip-path="url(#clipPath2)" font-family="sans-serif" stroke="none">!BTN_PRESS</text>
      <path fill="none" d="M605.8 110 L605.8 85 L606.425 80.625 L608.3 77.5 L611.425 75.625 L615.8 75 L695.8 75 L700.175 75.625 L703.3 77.5 L705.175 80.625 L705.8 85 L705.8 105 L705.175 109.375 L703.3 112.5 L700.175 114.375 L695.8 115 L656.2539 115" clip-path="url(#clipPath2)"/>
      <path d="M648.2539 115 L660.2539 120 L657.2539 115 L660.2539 110 Z" clip-path="url(#clipPath2)" stroke="none"/>
      <text x="581.6533" xml:space="preserve" y="69.6743" clip-path="url(#clipPath2)" font-family="sans-serif" stroke="none">BTN_PRESS &amp;&amp; t&lt; 750ms</text>
      <path fill="none" d="M388.9131 125 L540.843 125" clip-path="url(#clipPath2)"/>
      <path d="M548.843 125 L536.843 120 L539.843 125 L536.843 130 Z" clip-path="url(#clipPath2)" stroke="none"/>
      <text x="462.1352" xml:space="preserve" y="116.0743" clip-path="url(#clipPath2)" font-family="sans-serif" stroke="none">BTN_PRESS</text>
      <path fill="none" d="M563.3292 135 L387.0068 135" clip-path="url(#clipPath2)"/>
      <path d="M379.0068 135 L391.0068 140 L388.0068 135 L391.0068 130 Z" clip-path="url(#clipPath2)" stroke="none"/>
      <text x="389.3299" xml:space="preserve" y="155.2743" clip-path="url(#clipPath2)" font-family="sans-serif" stroke="none">!BTN_PRESS</text>
      <path fill="none" d="M888.2 110 L888.2 85 L888.825 80.625 L890.7 77.5 L893.825 75.625 L898.2 75 L978.2 75 L982.575 75.625 L985.7 77.5 L987.575 80.625 L988.2 85 L988.2 105 L987.575 109.375 L985.7 112.5 L982.575 114.375 L978.2 115 L937.7498 115" clip-path="url(#clipPath2)"/>
      <path d="M929.7498 115 L941.7498 120 L938.7498 115 L941.7498 110 Z" clip-path="url(#clipPath2)" stroke="none"/>
      <text x="870.8226" xml:space="preserve" y="68.8743" clip-path="url(#clipPath2)" font-family="sans-serif" stroke="none">BTN_PRESS &amp;&amp; t&lt;10s</text>
      <path fill="none" d="M662.757 125 L824.494 125" clip-path="url(#clipPath2)"/>
      <path d="M832.494 125 L820.494 120 L823.494 125 L820.494 130 Z" clip-path="url(#clipPath2)" stroke="none"/>
      <text x="668.8533" xml:space="preserve" y="150.4743" clip-path="url(#clipPath2)" font-family="sans-serif" stroke="none">BTN_PRESS &amp;&amp; t&gt; 750ms</text>
      <path fill="none" d="M871.4597 139.3067 L797.4 202.6 L787.4 202.6 L417 202.6 L412.255 202.0963 L408.02 200.5851 L404.295 198.0666 L401.08 194.5406 L365.3372 145.8802" clip-path="url(#clipPath2)"/>
      <path d="M360.6013 139.4326 L363.6755 152.0639 L365.9292 146.6861 L371.7349 146.144 Z" clip-path="url(#clipPath2)" stroke="none"/>
      <text x="599.7299" xml:space="preserve" y="220.3543" clip-path="url(#clipPath2)" font-family="sans-serif" stroke="none">!BTN_PRESS</text>
      <path fill="none" d="M978.8924 260 L1003.2 260 L1007.575 260.625 L1010.7 262.5 L1012.575 265.625 L1013.2 270 L1013.2 300 L1012.575 304.375 L1010.7 307.5 L1007.575 309.375 L1003.2 310 L898.2 310 L893.825 309.375 L890.7 307.5 L888.825 304.375 L888.2 300 L888.2 283" clip-path="url(#clipPath2)"/>
      <path d="M888.2 275 L883.2 287 L888.2 284 L893.2 287 Z" clip-path="url(#clipPath2)" stroke="none"/>
      <text x="942.9352" xml:space="preserve" y="326.4743" clip-path="url(#clipPath2)" font-family="sans-serif" stroke="none">BTN_PRESS</text>
      <path fill="none" d="M888.2 140 L888.2 237" clip-path="url(#clipPath2)"/>
      <path d="M888.2 245 L893.2 233 L888.2 236 L883.2 233 Z" clip-path="url(#clipPath2)" stroke="none"/>
      <text x="892.1953" xml:space="preserve" y="213.6743" clip-path="url(#clipPath2)" font-family="sans-serif" stroke="none">BTN_PRESS &amp;&amp; t&gt;=10s</text>
      <path fill="none" d="M797.5076 260 L360 260 L355.625 259.375 L352.5 257.5 L350.625 254.375 L350 250 L350 148" clip-path="url(#clipPath2)"/>
      <path d="M350 140 L345 152 L350 149 L355 152 Z" clip-path="url(#clipPath2)" stroke="none"/>
      <text x="720.2699" xml:space="preserve" y="278.7743" clip-path="url(#clipPath2)" font-family="sans-serif" stroke="none">!BTN_PRESS</text>
      <path fill="none" d="M1088.2 110 L1088.2 85 L1088.825 80.625 L1090.7 77.5 L1093.825 75.625 L1098.2 75 L1178.2 75 L1182.575 75.625 L1185.7 77.5 L1187.575 80.625 L1188.2 85 L1188.2 115 L1187.575 119.375 L1185.7 122.5 L1182.575 124.375 L1178.2 125 L1152.1814 125" clip-path="url(#clipPath2)"/>
      <path d="M1144.1814 125 L1156.1814 130 L1153.1814 125 L1156.1814 120 Z" clip-path="url(#clipPath2)" stroke="none"/>
      <text x="1118.9352" xml:space="preserve" y="67.2743" clip-path="url(#clipPath2)" font-family="sans-serif" stroke="none">BTN_PRESS</text>
      <path fill="none" d="M955.7986 250 L1078.2 250 L1082.575 249.375 L1085.7 247.5 L1087.575 244.375 L1088.2 240 L1088.2 148" clip-path="url(#clipPath2)"/>
      <path d="M1088.2 140 L1083.2 152 L1088.2 149 L1093.2 152 Z" clip-path="url(#clipPath2)" stroke="none"/>
      <text x="1098.9626" xml:space="preserve" y="223.2743" clip-path="url(#clipPath2)" font-family="sans-serif" stroke="none">consume</text>
      <path fill="none" d="M943.9061 125 L1024.2185 125" clip-path="url(#clipPath2)"/>
      <path d="M1032.2185 125 L1020.2185 120 L1023.2185 125 L1020.2185 130 Z" clip-path="url(#clipPath2)" stroke="none"/>
      <text x="970.744" xml:space="preserve" y="143.1387" clip-path="url(#clipPath2)" font-family="sans-serif" stroke="none">consume</text>
      <path fill="none" d="M1063.2 111.5484 L1063.2 28.8 L1062.575 24.425 L1060.7 21.3 L1057.575 19.425 L1053.2 18.8 L360 18.8 L355.625 19.425 L352.5 21.3 L350.625 24.425 L350 28.8 L350 102" clip-path="url(#clipPath2)"/>
      <path d="M350 110 L355 98 L350 101 L345 98 Z" clip-path="url(#clipPath2)" stroke="none"/>
      <text x="983.2699" xml:space="preserve" y="7.7743" clip-path="url(#clipPath2)" font-family="sans-serif" stroke="none">!BTN_PRESS</text>
      <path fill="none" d="M286.6 238.52 L286.6 212.6 L285.975 208.225 L284.1 205.1 L280.975 203.225 L276.6 202.6 L222.5918 202.6" clip-path="url(#clipPath2)"/>
      <path d="M214.5918 202.6 L226.5918 207.6 L223.5918 202.6 L226.5918 197.6 Z" clip-path="url(#clipPath2)" stroke="none"/>
    </g>
  </g>
</svg>
